<?xml version="1.0" encoding="utf-8"?>
<!DOCTYPE svg PUBLIC "-//W3C//DTD SVG 1.1//EN" "http://www.w3.org/Graphics/SVG/1.1/DTD/svg11.dtd">
<svg version="1.1" xmlns="http://www.w3.org/2000/svg" width="1354px" height="738px" viewBox="0 0 1354 738" preserveAspectRatio="xMidYMid meet">
 <g fill="#000000">
  <path d="M 636.60 694.80 c -12.60 -2.80 -14.20 -21.80 -3.20 -34.80 3 -3.60 5 -22 2.20 -22 -0.80 0 -5.60 -5.80 -10.80 -12.80 -5.40 -7.20 -10.20 -12.60 -11 -12 -2.40 1.40 -7.80 19.20 -7.80 25.80 0 3.60 -2.20 10.40 -4.80 15.40 -2.60 5 -5.40 11.60 -6 15 -2.80 12.80 -13.80 16.40 -48.80 16.60 -26.80 0 -30.40 -2 -30.40 -17 0 -7.40 1.20 -10.40 7 -16.80 6.40 -7 7 -8.80 7 -19.40 0 -8.20 1.20 -13.80 4 -18.40 3.80 -6 10 -30.80 10 -39.40 0 -3.60 -1.20 -4 -8.40 -3.40 -20.40 1.60 -27 -7.80 -24.80 -35.60 0.80 -9.80 3 -20.40 5.20 -25 2 -4.40 4.20 -11.20 4.80 -15.20 1.20 -7.40 6.60 -13.20 26.60 -29.40 l 10.20 -8.60 -4.80 -4.80 c -7.40 -7.60 -12.40 -20.20 -14 -36.40 l -1.40 -14.60 -14.60 0 -14.80 0 0 -7.60 c 0 -6.80 1 -8.40 7.40 -12.60 4.20 -2.60 10 -8.60 13.20 -13.40 l 5.80 -8.60 -5.80 -11 c -3.60 -7 -5.80 -9.60 -6.20 -7.40 -2 12.20 -2.20 12.60 -10.20 12.60 -7 0 -7.80 -0.60 -11 -8.40 -8 -20.20 -5.80 -58.80 4.60 -84 l 5.80 -13.60 -10.20 0 c -6.80 0 -14 -1.80 -21 -5 -10.40 -4.80 -10.60 -5.20 -10 -12.40 l 0.60 -7.60 11 -1.20 c 21.60 -2.40 47.40 -19.60 65 -43.20 18.80 -25.20 46.60 -46 75.40 -56 11.20 -4 20.20 -5.40 38.60 -6.40 l 24 -1.20 -7.80 -8.60 c -9.40 -10.20 -31.60 -21.60 -48.60 -24.80 -14.20 -2.60 -25.60 -0.80 -45.60 7.40 -6.60 2.80 -15.40 5 -19.40 5 -7.40 0 -7.60 -0.20 -7.60 -7.40 0 -6.20 1.60 -8.80 9.60 -16.20 23.60 -22.20 64.40 -32.80 102.60 -26.60 22.80 3.80 43.40 18.20 52.60 36.60 4.40 8.60 5.20 13.20 5.20 26.60 l 0 16 17.60 5.40 c 21.60 6.60 37.60 16.80 54.40 34.80 18.40 19.60 28.80 40.40 37.20 74.80 9.80 40 23.40 61.80 42.40 68.20 5.80 1.80 6.40 2.80 6.40 9.80 0 7.40 -0.40 8 -7.40 9.80 -4.20 1.20 -11.80 2.20 -17 2.20 -5.40 0 -9.60 0.40 -9.60 1 0 0.60 2.60 5.80 5.80 11.60 11.60 20.60 15.20 46.80 9 67.60 -5.60 18.60 -18 33.80 -27.80 33.80 -5 0 -7 1.20 -8.80 5.20 -3 6.60 0.80 13.20 11 19.20 5.80 3.40 6.80 5 6.80 11.60 0 8.60 -2.40 10 -19.20 10 l -10.20 0 2.60 12.60 c 1.60 6.80 3.60 21.80 4.80 33.20 1.20 11.60 4 26.40 6.40 33 3 9.20 3.80 15.40 3 25.60 -0.80 11.80 -1.80 14.60 -8.20 22.40 -4 4.80 -7.20 10 -7.20 11.60 0 5 -8 15.80 -13.60 18.20 -3 1.40 -9.20 5 -13.60 8 -11.80 8 -30.40 10.80 -51.60 7.80 -8.80 -1.20 -18.20 -2.80 -20.60 -3.60 -3.60 -1 -4.60 -0.40 -4.60 2.40 0 2.20 -2.20 6.40 -5 9.60 -2.80 3.20 -5 7.40 -5 9.40 0 12.40 -8.20 16 -38.80 16.80 -13.40 0.40 -26.20 0.20 -28.60 -0.20 z  m 40.40 -19.20 l 8 -2.40 -12 -1.60 c -6.60 -0.80 -13 -2 -14.40 -2.40 -2.20 -0.80 -8.60 4.60 -8.60 7.40 0 2.20 18.40 1.60 27 -1 z  m -106 -11 c 3 -1.20 1 -2 -9 -4 -12.80 -2.20 -13 -2.20 -18 2.80 l -5 5 14 -1 c 7.80 -0.60 15.80 -1.80 18 -2.80 z  m 122.60 -13 c 1.40 -1.40 2.40 -5.60 2.40 -9.40 0 -4 2.20 -14 4.80 -22.20 5 -15.80 13.20 -52.80 13.20 -59.80 0 -3.60 1.20 -4.20 8 -4.20 7.20 0 8 0.60 8 5 0 3.80 1 5 4.20 5 4 0 4.20 0.80 3.40 11.80 -0.60 8.80 -2.20 13.60 -6.20 18.80 -3 4 -5.40 8.60 -5.40 10.40 0 1.60 -1.80 8.20 -4 14.40 -2.20 6.40 -4 12 -4 12.80 0 2.20 27.20 8.20 36.20 8.20 8.40 -0.20 25.40 -7.20 27 -11.40 1.80 -4.60 -7.60 -22.20 -28.40 -53 -11.40 -17 -23.40 -34 -26.60 -37.60 l -5.80 -6.80 -5.60 3.60 c -3.20 2 -10.60 7.60 -16.40 12.40 -7.20 6 -13 9.20 -18.40 9.80 -4.60 0.60 -8.20 2.40 -9 4.40 -1.60 4.20 -9 58.80 -9 67 0 3.40 -1.40 8.80 -3 11.80 -3.20 6.40 -3.40 6.20 13 9 15.60 2.80 18.80 2.80 21.60 0 z  m -108.60 -13.60 c 1.60 -3.20 3 -9 3 -12.60 0 -3.80 3.60 -16.20 8.20 -27.60 5.60 -14.20 8.60 -25.40 9.80 -36.20 0.80 -8.60 3 -17.80 4.80 -20.40 1.80 -2.80 3.20 -6.60 3.20 -8.60 0 -1.80 2 -5.60 4.60 -8.20 l 4.40 -4.80 -6 -4.80 c -9.20 -7.40 -10 -7 -24 10 -4 4.80 -9.80 9.80 -13 11.20 -7 3 -9.60 10.40 -18.80 56.40 -3.40 17.40 -7.40 32.60 -8.80 34 -1.20 1.20 -2.40 4.40 -2.40 7 0 5.20 6.40 7.40 29.40 10.40 1.40 0 3.80 -2.40 5.60 -5.80 z  m 61.60 -42.40 c 0.80 -12.60 0.60 -13.40 -2.80 -11.60 -2 1.20 -6.80 2 -10.60 2 -4 0 -7.20 0.40 -7.20 1 0 3 17 24.80 18.20 23.60 0.80 -1 1.80 -7.60 2.40 -15 z  m 167 -6.40 c 0.40 -3 -0.60 -8.80 -2.20 -12.80 -1.60 -4.20 -3.40 -13.60 -4.20 -21.40 -4.40 -45.60 -12.40 -77.80 -26.80 -106.20 -6 -11.80 -11 -16.80 -19.60 -19.60 -6.20 -2 -22.60 9 -43.80 29.20 -9.80 9.60 -21.20 19.80 -25.20 23 -4.20 3 -16 12.20 -26.40 20.20 -10.60 8 -19.60 15.20 -20.20 16.20 -0.60 1 1.40 2.20 4.40 2.80 6.80 1.40 18.40 12.60 18.40 17.80 0 5.60 2.60 4.40 14.80 -5.80 6.20 -5.40 15.40 -11.80 20.60 -14.60 16.60 -8.40 32.60 -20 47.60 -34.20 12.40 -11.80 15.40 -13.80 21.80 -13.80 6.60 0 7.20 0.40 7.20 6 0 3.40 1 6 2 6 1.20 0 2 3.60 2 7.80 0 7.80 -0.20 8 -10.40 11.40 -9.20 3 -29.60 16.60 -31.20 20.60 -0.20 0.80 3.80 7.40 9 14.40 5.40 7.20 11.80 16.20 14.40 20 2.60 4 8.60 9 13 11.40 9 4.80 21.60 16 26.60 23.60 4 6.20 7.40 5.20 8.20 -2 z  m -179.60 -32 c -3.40 -4.20 -5.40 -4 -8 1 -1.80 3 -1.60 4.80 0.20 7 2.20 2.60 3 2.60 6.40 -1 3.40 -3.40 3.60 -4.40 1.40 -7 z  m -101.20 -13.60 c 1.40 -6 -1.80 -8 -3.20 -2 -0.80 3.20 0.20 9.40 1.40 8 0.20 -0.40 1 -3 1.80 -6 z  m 83.60 -64.60 l 17.60 -8 0 -13.40 0 -13.60 6.80 0 c 3.80 0 7.40 0.80 8 1.80 0.60 1 2.20 8.80 3.60 17.60 1.20 8.60 2.60 16 3 16.40 0.40 0.60 3.60 -1.80 7.20 -5.20 3.40 -3.20 9.60 -7.80 13.40 -10.20 3.80 -2.20 11 -8.40 16 -13.40 l 9 -9.40 -19.20 1.40 c -20.20 1.40 -26.60 0 -42 -10.20 -5 -3.20 -5.40 -3.20 -16.80 4.80 -11.20 7.60 -11.60 8.40 -11.80 16.60 -0.20 8.20 -0.60 8.80 -5.80 9.40 -3.20 0.40 -8.20 -0.20 -11.40 -1.20 -5.40 -2 -6.80 -1.20 -22.20 12.20 -9.20 8 -20.20 17.80 -24.80 21.80 l -8 7.40 7.60 0.20 c 5.60 0 9.20 1.60 14.60 6.60 l 7.40 6.60 15.20 -15.20 c 12.40 -12.40 18.40 -16.60 32.60 -23 z  m 198.20 -53 c 6.20 -12.80 6.40 -13.60 6 -38.60 l -0.20 -25.60 7.20 0.60 c 8.40 0.80 12.60 6.60 17 23.60 2.60 9.80 3 10.20 4.20 5.20 1.80 -7.20 -2.40 -20.60 -13.40 -42.20 -10.60 -21.20 -15.40 -36.40 -15.40 -48.40 0 -7.80 0.40 -8.60 5 -8.60 5.80 0 6 -0.40 2 -8 -1.60 -3.20 -5.80 -17.40 -9 -31.40 -7.80 -33 -18 -53.80 -35.20 -72.40 -7 -7.60 -17.60 -17 -23.40 -20.80 -15 -10 -37.20 -17.40 -51.60 -17.40 -7.20 0 -14.60 -1.40 -18.40 -3.20 -30.20 -15.80 -89.80 9.60 -123.20 52.20 -5.80 7.40 -14.20 16.80 -18.60 21.20 -5.40 5.20 -7 7.80 -4.80 7.80 2.40 0 3.20 2 3.20 7.80 0 4.40 -0.80 8.60 -2 9.20 -2.20 1.40 -14.60 23 -18.80 33 l -2.80 7 8 -0.80 8.20 -0.60 -1.40 15.40 c -1 10.40 -0.60 18.80 1 25.20 2.60 9.60 2.60 9.80 10.40 9.80 l 7.80 0 -0.80 20 c -0.60 18.60 -0.40 20 3.20 20 3.40 0 3.60 1 2.60 12.60 -0.60 6.80 -1.80 14.40 -2.60 17 -1.20 3.80 -0.60 4.40 5 4.40 4.60 0 6.20 1 6.20 3.60 0 3.40 9.20 24.40 10.60 24.40 0.60 0 0.60 -8 0.40 -17.60 -0.40 -15 -1.20 -19 -5.80 -26.80 -3.80 -6.40 -5.20 -11.80 -5.20 -19.20 0 -12.60 -1.40 -16.40 -6.20 -16.40 -2.60 0 -4 -2 -5 -7.20 -2.60 -14.20 2.80 -90.20 7.40 -104.20 1.80 -5.80 3 -6.60 9.20 -6.60 l 7.20 0 -1 16.60 -1.20 16.40 3.60 -10 c 1.80 -5.40 6.20 -15.40 9.40 -22 3.40 -6.60 6.60 -16 7.40 -21 0.80 -5 3.80 -14 6.80 -20 5.20 -10.60 5.80 -11 14.20 -11.60 l 8.60 -0.60 -1 7.60 c -0.40 4.20 -3.40 14 -6.40 21.60 -5.60 14.80 -7.40 33.20 -4.40 47.20 1.40 6.80 2.20 7.40 10 8.60 7.40 1.20 9 2.40 13 10 2.60 4.80 7.80 11.60 11.60 15.40 l 6.80 6.60 0 -12.20 c 0 -6.80 -1 -13 -2 -13.60 -3.20 -2 -2.40 -15 0.80 -15 3.60 0 5.20 -9 5.20 -29.20 l 0 -16.80 7.60 0 c 7.20 0 7.60 0.40 14.80 14.60 4.20 7.80 11 18.20 15 23 7.40 8.40 7.80 8.60 17 7.20 l 9.20 -1.20 -2.80 -8 c -1.60 -4.60 -2.80 -11.20 -2.80 -15 0 -6.60 0.20 -6.80 7.60 -6.20 6.40 0.60 8 1.60 11 8 6.80 13.80 11.60 44.40 11 68 l -0.60 21.60 6.60 0 c 6 0 6.40 0.40 6.40 7.60 0 4.20 -1.60 10.80 -3.80 14.80 -2 4 -4.20 12.60 -5 19 -0.80 6.40 -3 18.40 -5.20 26.60 -2 8.20 -3.60 15.20 -3.20 15.60 0.40 0.40 3 -2.40 5.80 -6 18.20 -24 26.60 -69.60 20.60 -110.20 -1.80 -11.80 -3.20 -24.60 -3.20 -28.60 0 -7 0.20 -7 7.60 -6.40 8 0.60 7.40 -0.40 13.40 27.20 0.80 2.80 2.60 4.40 5.20 4.40 6.20 0 11.40 3.60 14.80 10 3.80 7.40 4 31.80 0.20 40.60 -2.40 6.20 -15.60 19.40 -19 19.40 -1 0 -2.40 4.20 -3.20 9.20 -1 7 -0.60 10 1.80 12.60 1.80 2 3.20 7 3.20 12 0 6.20 1.40 10.20 4.80 14.40 5.80 6.80 8 19.20 5.60 31.80 -1 5.60 -0.80 11.60 0.40 16 l 2.20 7 0.60 -9 c 0.40 -5 3.60 -14.80 7 -22 z  m -202.20 -8.20 c 5.40 -3.40 9.40 -6.60 9.20 -6.80 -0.40 -0.40 -5.80 -2.40 -12.40 -4.60 l -11.60 -4 1.20 7.40 c 0.60 4 1.20 8.80 1.20 10.80 0 4.60 1.20 4.40 12.40 -2.80 z  m 53.60 0.20 c 0 -3.20 -1.40 -4 -6.40 -4 l -6.60 0 5 4 c 6.40 5 8 5 8 0 z  m 15 -26.40 c 12.80 -2.60 53.40 -22 48.40 -23.20 -2 -0.40 -4.80 0.80 -6.20 2.60 -1.60 2.40 -4.80 3.20 -11.20 2.60 l -9 -0.60 -0.60 -14.40 -0.60 -14.60 7.20 0 c 5.40 0 7 0.80 7 3.60 0.20 2.80 0.80 2.60 4 -1.40 7 -8.20 5.40 -9.20 -12.80 -8.60 -15.20 0.60 -17.20 0.20 -21 -3.80 -2.40 -2.60 -4.20 -6.20 -4.20 -8.20 0 -3 -1.60 -3.60 -8.60 -3.60 -5.20 0 -12.40 -2 -17.80 -4.60 -6.40 -3.20 -11.40 -4.40 -17.40 -3.80 l -8.20 0.80 0 11.60 c 0 17 -3.60 20.60 -21.60 21.60 -11.80 0.80 -14.60 0.20 -17.80 -3 -3.80 -3.80 -3.80 -3.80 -3 7.20 1 14 6.40 22.80 17.60 29.40 21.80 12.80 47.40 16.20 75.80 10.40 z  m -69.20 -65.20 c 2.80 -5.40 -0.40 -9.20 -6.60 -7.60 -4.60 1.20 -4.80 1.80 -2.80 6.20 2.60 5.80 6.60 6.40 9.40 1.40 z  m 98.60 -7.80 c 2 -1.80 3.60 -4.80 3.60 -7 0 -2.80 -1.60 -3.60 -8 -3.60 -9 0 -10.60 3.80 -4.60 10.40 4 4.40 4.40 4.40 9 0.20 z  m -9.60 -41.60 c -5.20 -4 -22.80 -4 -22.80 0 0 2.40 2.80 3 13.40 3 12.20 0 13 -0.20 9.40 -3 z  m 4.20 -179.40 c -8.80 -21.60 -35.20 -37.60 -61.40 -37.60 -13.20 0 -12 2.60 2.40 5.40 22.80 4.20 46.20 19.80 55.60 36.80 6.20 11 8.60 7.60 3.40 -4.60 z "/>
  <path d="M 634.40 385.60 c -2.80 -2.80 -3.20 -17.20 -0.60 -21.40 3.40 -5.40 51 -10.20 57 -5.80 4.60 3.60 6.60 19.20 2.80 23.80 -3.40 4.40 -55.20 7.40 -59.20 3.40 z "/>
  <path d="M 888.40 266.80 c -3.60 -2.60 -4.40 -5 -4.40 -14.60 0 -6.40 0.60 -12.20 1.40 -13 0.80 -0.80 1.20 -8.80 0.80 -18 -0.60 -19.60 1.20 -24 14.60 -37.20 5 -4.80 9.20 -10 9.20 -11.40 0 -4.60 -5.80 -2.80 -9.40 3 -2 3 -4.40 6 -5.60 6.80 -3.40 2.40 -24 1.80 -26.60 -0.80 -1.40 -1.40 -2.40 -8.20 -2.40 -16.20 0 -13.40 0.20 -14.20 7.60 -21.40 15.60 -15.60 48.60 -16.40 65.40 -1.80 7.80 7 11 16 11 31.60 0 14.60 -5.60 25.80 -17 34 -15.20 11 -16.40 14.20 -13.80 41.80 1.60 16.60 -1.40 20.40 -16 20.40 -6.20 0 -12.20 -1.20 -14.80 -3.20 z "/>
 </g>
 <g fill="#ffffff">
  <path d="M 0 369 l 0 -369 677 0 677 0 0 369 0 369 -677 0 -677 0 0 -369 z  m 689.80 316.20 c 5.80 -3.20 8.20 -6.80 8.20 -13 0 -2 2.20 -6.20 5 -9.40 2.80 -3.20 5 -7.80 5 -10.20 0 -5.20 3.20 -5.80 14 -2.60 26.20 7.60 48.40 6.40 63 -3.40 4.40 -3.20 10.40 -6.60 13.40 -8 5.60 -2.40 13.60 -13.20 13.60 -18.20 0 -1.60 3.20 -6.60 7 -11.20 9.20 -11.20 10.60 -20.80 5.20 -36.40 -2.20 -6.60 -5 -21.20 -6 -32.60 -1.20 -11.20 -4 -29 -6.20 -39.60 -4.80 -23.60 -4.80 -23.20 -0.20 -20.60 6.80 3.60 29.20 1.80 27.80 -2.20 -0.40 -0.80 -3.80 -3.60 -7.60 -6.20 -3.80 -2.60 -8.60 -8 -10.60 -12 l -3.60 -7.40 6 -14 c 3.40 -7.60 7.60 -18.60 9.20 -24.60 l 3 -10.60 -1 12 c -0.60 6.60 -1.60 14 -2.20 16.60 -2 7.20 4 5.40 12 -3.80 8.60 -10.20 12.80 -18.80 15.60 -32.40 3 -14.40 -1.40 -31.80 -14.40 -56.60 -11.80 -22.20 -12.60 -26.20 -4.40 -22 8.80 4.60 19 5.80 28 3.20 10 -2.60 10.60 -5 2 -7.80 -19 -6.40 -32.60 -28.20 -42.40 -68.20 -9.20 -38 -18.60 -55.60 -41 -78.20 -19.20 -19.20 -33.60 -27.60 -57.80 -33.40 -11.40 -2.60 -14.20 -4 -13.20 -6.40 0.80 -1.60 1.80 -8.60 2.40 -15.60 0.80 -10.60 0 -14 -4.40 -23.40 -18.20 -36.80 -71.40 -49.60 -116.80 -28 -15.40 7.20 -31.20 19 -34.80 25.60 -2.40 4.60 -4.20 5 22.40 -4.40 12.20 -4.40 20.80 -6.20 30 -6.20 37.40 0 72.60 21.40 80.80 49.40 1.40 4.20 1.20 4.20 -8.20 1.20 -14.20 -4.40 -41.60 -2.60 -60.20 4 -28.80 10 -56.60 30.80 -75.40 56 -17.60 23.60 -44 41.20 -64.60 43 -5.80 0.40 -11 1.80 -11.60 2.60 -0.60 1 4 4.20 10.20 7 9.40 4.40 13.40 5.20 24.20 4.40 7 -0.40 12.80 -0.40 12.80 -0.20 0 0.40 -2.60 6 -5.80 12.40 -11 21.80 -14.80 35.60 -15 56.20 -0.20 14.20 0.80 21.40 3.60 28.60 5.60 14.20 7.60 12.60 10.20 -8.60 0.60 -6 2.40 -13.60 3.80 -17 l 2.60 -6 2.40 12 c 1.40 6.60 5.60 17.80 9.40 24.80 5 9.20 6.60 14.20 5.80 18 -1.80 7.80 -11.20 20.60 -19 25.80 -3.80 2.60 -7.20 5.40 -7.60 6.60 -1.20 3.20 16.60 2 24 -1.80 l 7.20 -3.80 -0.20 17.20 c 0 17.80 2.60 26.80 10.60 38.40 4.60 6.40 11.40 8.20 9.20 2.40 -0.80 -1.80 -1.80 -7.60 -2.40 -12.60 -0.80 -7.80 -0.60 -8.40 1.60 -5.20 1.40 2.20 5.60 7.40 9.20 11.40 l 6.80 7.60 -11.80 10.80 c -6.40 6 -17 15.40 -23.60 20.80 -15.60 13 -16.80 14.40 -18.80 25.20 -0.80 5.20 -2.60 10.60 -4 12 -1.20 1.60 -2.60 6 -3 10 -0.60 4 -1.60 10.40 -2.20 14 -1.80 9.20 3.20 20.80 10.20 23.40 6.60 2.60 12.20 1 13.80 -4.20 0.80 -2.40 3 -3.80 6.20 -3.80 3 0 5.40 -1.40 6 -3.40 6.20 -19.80 7.40 -15 2 7.40 -2.60 10.40 -5.80 25.80 -7.20 34 -1.40 8.20 -4.60 19.20 -7.20 24.60 -3.40 6.60 -4.40 10.60 -3 13 0.80 1.80 1 5.20 0.20 7.40 -0.80 2.20 -1 5.20 -0.40 6.60 0.40 1.40 -2.80 6.40 -7.40 11.40 -9.20 10 -10 13.20 -4.20 19 3.40 3.40 6.60 4 20.60 4 28.60 -0.20 39.80 -4.40 42.60 -16.60 0.60 -3.40 3.40 -10 6 -15 2.60 -5 4.80 -12 4.80 -15.60 0 -6.20 8.80 -33.80 12 -37.40 0.80 -0.80 5.40 4.40 10 11.80 4.80 7.20 12.40 17 17 21.60 7.40 7.40 8 8.60 5.80 13 -1.60 3 -1.80 6.60 -0.60 10.80 1.60 5.80 -0.20 10.20 -6.40 15.40 -0.60 0.60 -2.20 3 -3.60 5.60 -2 3.80 -2 5.60 0.60 9.40 1.80 2.60 5.20 5.20 7.60 5.80 8.80 1.80 41.40 -0.60 47.40 -3.60 z  M914.20 251.80 C 914.20 245.20 908.80 239.80 902.20 239.80 895.60 239.80 890.20 245.20 890.20 251.80 890.20 258.40 895.60 263.80 902.20 263.80 908.80 263.80 914.20 258.40 914.20 251.80 Z M910.40 260.60  m -2.40 -30.60 c 2.20 -2.20 4 -6.40 4 -9.20 0 -5 2.60 -8.20 20.40 -24.20 14.40 -12.80 15.20 -33.60 1.80 -46.80 -15.40 -15.40 -39.20 -15.40 -54.60 0.20 -6.20 6.20 -7.60 9 -7.60 15.40 0 9.20 2.80 12.60 10.40 12.60 5.60 0 6.40 -0.60 13.80 -10.40 7.40 -10 21.80 -6 21.80 6.20 0 3.80 -2.80 8.20 -10.20 15.20 -12.60 12.40 -15.80 18.40 -15.80 29.80 0 7 1 9.60 4.40 12 5.80 4 6.80 4 11.60 -0.80 z "/>
  <path d="M 641.20 681.40 c -4.20 -3 -3.60 -5 5 -15 l 5.20 -6 12.80 2.80 c 7 1.40 16.60 2.60 21.40 2.80 8.20 0 8.40 0.20 7.20 5.60 -0.80 3 -1.80 6 -2.20 6.80 -3 5.40 -42.80 7.80 -49.40 3 z "/>
  <path d="M 530.60 672.60 c -4.40 -1.60 -2.80 -5.60 6 -14 l 8.40 -8 19.60 3.20 c 14.80 2.40 19.40 4 19.40 6.40 0 5.40 -5 10 -13 11.80 -8.40 2 -36.20 2.40 -40.40 0.60 z "/>
  <path d="M 664.20 657.20 c -15.40 -2.60 -17.80 -6.20 -12 -18.40 2 -4.20 3.60 -10.60 3.80 -14 0 -8.40 7.40 -63 9 -67 0.80 -2 4.40 -3.80 9 -4.40 5.40 -0.60 11.20 -3.80 18.40 -10 5.80 -4.80 14.80 -11.20 20.20 -14.40 l 9.40 -5.40 8.20 8.60 c 10.40 11.40 48.40 68 53.60 80.20 2.20 5.20 4.60 12.60 5.20 16.40 1.20 6.40 0.80 7.20 -6.40 12 -9.20 6.20 -26.20 10 -36.20 8.40 -7.60 -1.40 -37 -7.80 -37.80 -8.20 -0.40 -0.20 2.20 -8.80 5.40 -19 3.40 -10.20 6 -20 6 -21.40 0 -1.60 2.20 -5.80 5 -9.40 4.60 -6.20 9 -19.20 6.40 -19.20 -0.80 0 -2.60 2.40 -4.20 5.60 -3 5.40 -3 5.40 -3.20 -5 0 -5.80 -0.80 -10.60 -2 -10.60 -1 0 -2 1.80 -2 4.20 0 7 -8.20 44 -13.20 59.80 -2.60 8.20 -4.80 18.20 -4.80 22 0 4 -1 8.20 -2.40 9.60 -2.80 2.80 -18 2.80 -35.40 -0.40 z "/>
  <path d="M 567 648.80 c -2.20 -0.40 -8.40 -1.80 -14 -2.80 l -10 -2 0.20 -10 c 0 -5.40 1.40 -11.40 3 -13.20 1.60 -1.80 5.60 -17.40 9 -34.60 9.40 -46.20 11.60 -52.80 19.40 -56.60 3.40 -1.80 10 -7.60 14.40 -13.20 4.40 -5.40 10.40 -11.40 13.20 -13.20 4.80 -2.80 5.80 -2.80 13.20 1 11.80 5.80 15.20 10.20 13.60 17.40 -0.60 3.40 -3 7.60 -5.20 9.60 -2 1.80 -3.80 5.20 -3.80 7.20 0 2 -1.40 6 -3.20 8.80 -1.80 2.60 -4 11.80 -4.80 20.40 -1.20 10.80 -4.20 22 -9.80 36.20 -4.60 11.40 -8.20 23.80 -8.20 27.60 0 3.60 -1.40 9.40 -3 12.60 -2.80 5.20 -4.20 6 -11.60 5.80 -4.60 -0.20 -10.20 -0.60 -12.40 -1 z "/>
  <path d="M 793.80 623.60 c -2.20 -8.80 -10.60 -26 -18 -37 -7.40 -11.40 0 -7.40 14.40 7.60 13.80 14.20 18.60 15.40 8.40 2.20 -7.40 -9.80 -16.20 -17.40 -25.60 -22.60 -4.60 -2.40 -10.80 -8 -13.80 -12.60 -10.60 -15 -22 -30.20 -26.60 -35.20 l -4.40 -5 14.60 -11.20 c 8.20 -6.20 19.40 -12.80 25 -14.80 11.20 -3.60 14.20 -8.20 3.80 -6 l -6.20 1.40 4.40 -7.20 c 2.60 -4 3.80 -7.20 3 -7.20 -0.60 0 -7.80 6.20 -15.80 13.80 -15 14.20 -31 25.80 -47.60 34.20 -5.20 2.80 -14.40 9.20 -20.40 14.40 -7 6 -13.80 10 -18.60 10.80 -4 0.60 -9.40 2.60 -12 4.20 -4.20 2.60 -5.20 2.40 -11.60 -3.20 -3.80 -3.40 -10.20 -7.60 -14.20 -9.20 l -7.20 -3 4.20 -4.60 c 2.40 -2.60 4.40 -6.80 4.40 -9.60 0 -7.40 4.40 -12.40 25.20 -28.20 10.60 -8 22.40 -17.20 26.60 -20.20 4 -3.20 15.40 -13.40 25.20 -23 30.20 -29 44.80 -35.40 61 -26.80 17.80 9.40 35.20 61.20 41 122.40 0.80 7.20 3.20 18.60 5.40 25.40 4.80 14.80 4 22.60 -4.20 32.60 -3 3.80 -7.40 11.20 -9.80 16.60 -2.20 5.20 -5 9.40 -6.20 9.40 -1.20 0 -3 -3.80 -4.40 -8.40 z  m -135.20 -86.40 c -4.20 -5.60 -12.80 -11.20 -17.40 -11.20 -5 0 -3.80 3.80 1.60 5.20 2.60 0.60 7.80 4.20 11.40 8 7.20 7.60 10.40 6 4.40 -2 z "/>
  <path d="M 640.60 621.60 c -10.60 -11.20 -24.80 -33.80 -24.20 -38.40 0.60 -3.80 1.60 -4.20 10.20 -3.60 9 0.80 10 0.20 18.60 -8.40 10.40 -10.60 13 -11.40 11.80 -3.60 -2.20 13.60 -5 34.60 -6 47 -0.80 7.40 -2 13.40 -2.80 13.40 -0.80 0 -4.20 -3 -7.60 -6.40 z "/>
  <path d="M644.40 559.80 C 644.40 567.80 638 574.20 630.20 574.20 622.20 574.20 615.80 567.80 615.80 559.80 615.80 552 622.20 545.60 630.20 545.60 638 545.60 644.40 552 644.40 559.80 Z M620.40 571.60 "/>
  <path d="M 525.20 555.60 c -3.40 -4.80 -4 -9.60 -2 -19.60 1.40 -6.20 1.80 -6.40 9.20 -5.40 10.60 1.40 17.60 6.40 17.60 12.40 0 5.80 -3.60 8.60 -5.20 4.20 -2 -5.40 -4.60 -3.60 -6.80 4.80 -2.40 9.20 -7.80 10.80 -12.80 3.60 z "/>
  <path d="M 548.60 531 c -3.60 -2.60 -10.60 -5.20 -15.60 -5.80 l -9 -1.40 3 -5.80 c 1.60 -3.20 3 -7.20 3 -9 0 -7 6.60 -15.20 25.20 -31.20 10.60 -9.20 22.20 -19 26 -21.60 6.40 -4.40 7 -4.60 14.60 -1.60 9.40 3.80 11 2.80 7 -5 -1.80 -3.40 -2.80 -6.20 -2.40 -6.60 0.40 -0.40 8.60 -6 18.60 -12.60 l 17.80 -12 4.80 4.80 c 6.60 6.60 25 15.20 30.80 14.40 3.60 -0.40 2 -2 -8.60 -7.20 -15 -7.60 -22.40 -14.40 -21.40 -19.80 0.60 -3 2.80 -3.60 15.60 -4 l 15 -0.20 -0.60 7.20 c -0.60 5.20 0.60 9.40 4 14.20 6.20 9.40 8.40 9.60 13.40 1.40 7.60 -12.20 35.80 -35.20 43.20 -35.20 2 0 0.80 4.80 -4.20 16 -4.60 10.60 -6 11.80 -16.40 16 -11.60 4.60 -19.60 10 -14.80 10 1.40 0 5.80 -1.40 9.80 -3 9.20 -3.80 10 -3.80 5.80 0.80 -1.80 2 -2.80 5 -2.20 6.60 1.20 3 -27 31.60 -31 31.60 -1 0 -7.40 5 -14.20 11 -11.60 10.40 -15.80 13 -15.80 9.60 0 -1 -1.40 -10.20 -3 -20.60 -4 -23.80 -8 -29.40 -6.20 -8.40 1 11.20 0.60 14.40 -1.40 14.40 -1.40 0 -10.20 3.60 -19.40 8 -13 6.40 -20 11.60 -32.40 24 -10.80 11 -17.40 16 -20.60 16 -2.60 0 -6.40 2.20 -8.40 4.80 l -3.60 4.60 -6.40 -4.40 z  m 13.40 -6.80 c 0 -1 -3.20 -4.60 -7 -8 -5 -4.40 -9.20 -6.20 -14 -6.20 -3.80 0 -7 1 -7 2 0 1.20 1.80 2 4 2 5.20 0 14.40 4.60 17.80 8.80 3 3.60 6.20 4.20 6.20 1.40 z "/>
  <path d="M 622.60 502.40 c -4.60 -3 -8.60 -6 -8.60 -6.60 0 -1.60 23.40 -11.80 27.20 -11.80 5 0 3.60 14.60 -1.80 19.60 -5.80 5.40 -6.40 5.40 -16.80 -1.20 z "/>
  <path d="M 817 476.60 c -8.40 -2.20 -13 -7.40 -18 -20.60 -3.80 -10 -4.80 -14.80 -3.40 -17.40 2 -3.60 3 -11.60 2.60 -20 -0.20 -2.40 -2.40 -7 -5.20 -10.20 -3.80 -4.40 -5 -8.20 -5 -15 0 -7.20 -1 -9.80 -4.80 -12.80 -4.80 -3.80 -4.80 -4 -2 -14.60 1.60 -6 2.80 -12.40 2.80 -14.40 0 -2 0.80 -3.60 2 -3.60 3.60 0 16.60 -13 19.20 -19.40 7.60 -17.80 -0.60 -38.60 -15 -38.60 -4.20 0 -4.80 -1.20 -8.20 -18.40 -1.20 -6.40 -3.20 -12 -4.20 -12.60 -2.20 -1.60 -2.40 -3 1.40 22.40 5.80 37.60 0.80 80.40 -12.20 108.20 -2.80 6 -9.80 15.60 -15.40 21.60 -9.80 10.60 -22.80 20.20 -24.60 18.40 -0.60 -0.40 2 -7.20 5.80 -14.80 7 -14.20 14 -39.60 16.20 -58.80 0.80 -6 3.20 -14.80 5.40 -19.60 2.20 -4.80 3.40 -9.20 2.60 -10 -0.80 -0.80 -2 -0.20 -2.40 1.20 -1.60 4 -16.60 22.40 -18.40 22.40 -1 0 0.60 -6.60 3.40 -14.40 4.60 -13 5.20 -17.40 5.20 -40.60 -0.20 -27 -4.80 -51.60 -12 -62.60 -4.60 -7 -5.40 -4.40 -1.80 5.80 6.40 17.60 11.20 47.80 7.80 47.80 -2.40 0 -28.80 -18 -28.80 -19.80 0 -1 3.20 -2.40 7 -3 10.60 -2 8.40 -4.80 -2.40 -3 -9.60 1.60 -9.60 1.60 -18.20 -7.80 -4.60 -5.20 -11.80 -16 -16 -23.80 -4 -8 -8 -14.60 -8.80 -14.60 -1 0 -1.60 7.40 -1.60 16.60 0 23.20 -1.60 31.40 -5.80 29.80 -2.60 -1 -2.80 -0.60 -1 1.80 2 2.60 5.20 45.80 3.40 45.80 -6.60 0 -26.40 -19.20 -32 -31 -5 -10.60 -7.20 -8.60 -5.60 5.20 1.60 13.80 -0.60 14.60 -6.80 2.20 -3.40 -6.60 -3.40 -8 -1 -11.20 3.20 -4.60 2 -6.80 -2 -3.40 -3.80 3.20 -7 -6 -8.40 -24.80 -1.40 -16.40 1.20 -32.40 8 -49.20 2.80 -6.80 3.80 -11.60 2.60 -11.20 -3.80 1.20 -13.20 21.40 -14.60 31.40 -0.80 4.80 -4.80 16 -9 24.40 -4 8.60 -8.60 20.20 -10 25.60 -1.40 5.60 -3.80 10 -5.20 10 -2.80 0 -3.60 3.20 -1 4.40 0.80 0.40 1 3.80 0.20 7.60 l -1.20 7 -2.80 -6 c -1.80 -4.20 -2.80 -13.40 -2.60 -29.80 0 -22.60 -0.20 -23.60 -2.80 -17 -1.60 3.60 -3.20 13.20 -3.60 20.80 -0.20 7.80 -1.60 19.80 -2.60 27 -2.60 15.60 -2.60 43.40 -0.20 49 1.20 3 1.80 1.60 1.80 -5.80 0.20 -5.40 0.80 -9.40 1.40 -8.80 2.20 2.40 6.60 25 6.80 34.80 0 7.60 1.40 12.20 5.80 19.20 5.40 8.40 5.80 10.60 5.80 29 0 14.80 1 22.40 4 30.20 2.20 5.80 3.60 10.40 3.20 10.40 -2.80 0 -12.60 -6.40 -17.20 -11.40 -6 -6.20 -13.40 -21.60 -13.60 -27.40 0 -3.20 -0.60 -3.40 -2.40 -1.60 -1.40 1.40 -3 7.80 -3.60 14 -1 10.60 -1.20 11.20 -3.60 6.80 -4.60 -8.20 -5.20 -24.80 -1.40 -40.40 2 -7.80 3 -14.60 2.40 -15.40 -0.60 -0.60 -4.60 2.60 -9 7.20 -10.80 11.40 -16.20 11.20 -8.60 -0.20 7.60 -11.60 12.20 -25.60 12.20 -38 0 -11.40 -2 -11.60 -4 -0.20 l -1.20 7.60 -4.40 -7 c -7.40 -12 -11 -27.40 -10 -44.40 0.60 -9.60 0.20 -15 -1 -14.20 -3.20 2 -15.20 29.60 -16.60 38.40 -1.80 11.80 -4.80 6.40 -4.80 -8.80 0 -22.40 10.60 -53.40 25.80 -76.20 3.40 -5 6.20 -9.40 6.20 -10 0 -0.60 -3.20 0.80 -7 3.20 -7.40 4.60 -27.80 7.60 -34.40 5.20 -2.80 -1.20 -1 -2.40 7.40 -6 21.40 -8.60 35 -19.80 54.20 -44.20 27.60 -35.20 68.60 -57.20 106.60 -57 9.20 0.20 19.60 1.40 24.20 3.20 12 4.40 12 4.40 11.60 -3.60 -1 -16.80 -17.80 -37.40 -39.20 -48.20 -21.40 -10.80 -49.80 -13.60 -71.80 -7.20 -10.40 3 -8.80 0.40 4.20 -6 31.20 -15.80 68.20 -16.20 92 -1.20 9.40 5.80 19.40 17.20 23.20 26.40 3.80 9 3.80 28 0 34.60 -4.80 8.40 -3.80 10 5.80 10 11.40 0 35.20 8.60 48.60 17.40 5.80 3.80 16.40 13.20 23.40 20.80 17.20 18.60 27.40 39.40 35.20 72.40 3.20 14 7.80 29.20 10.20 34 7 13.60 17.80 27.20 24.60 30.80 4.60 2.60 5.40 3.60 2.80 4.20 -6.60 1.40 -19.60 -3.80 -26.80 -10.60 -4 -4 -7.80 -6.60 -8.40 -6 -2.20 2 6 25.80 14.80 43.60 10.60 20.80 14.80 33.20 14.80 43.80 0 9.20 -6.80 27.80 -11.80 32.40 -3.60 3.20 -3.80 3 -3.80 -10.40 -0.20 -14.20 -6 -34 -11.40 -38.40 -3.60 -3 -3.60 -3.40 -1 10.20 2.80 15 -0.40 36.40 -8 52.40 -3.20 7 -6 15.60 -6 19.20 0 7 4 16 8.80 20 6.20 5.20 3.60 7.20 -5.80 4.80 z "/>
  <path d="M 595.20 431.60 c -2.40 -8.40 -3.80 -39.60 -1.80 -39.60 1 0 5.40 1.80 10 4 4.40 2 13.80 5.20 21 7 10.40 2.60 13 4 12.20 6.60 -0.80 3 -32.20 24.60 -37.80 26 -1.20 0.40 -2.80 -1.40 -3.60 -4 z "/>
  <path d="M 784 428 c -5 -5.40 -9.80 -8.40 -16.60 -10 -5.20 -1.40 -9.40 -3 -9.40 -3.60 0 -0.60 1.80 -3 3.80 -5.20 2.20 -2.40 6.20 -9 9.20 -14.60 2.80 -5.80 6 -10.60 6.80 -10.60 3.80 0 6.60 6.20 5.40 12.20 -0.80 4.60 0 7.60 3.80 12.60 5.80 7.60 8 16.40 5.60 22.60 -1.60 4.20 -1.80 4 -8.60 -3.40 z "/>
  <path d="M 680 424 c -1 -2 -2 -5.80 -2 -8.20 0 -3.80 0.40 -4 3.20 -1.60 3 2.60 3.40 2.20 2.40 -3.60 -0.80 -6.20 -0.60 -6.40 9.20 -8.80 5.60 -1.20 11.80 -3.20 13.80 -4.20 7.60 -4 5 0.20 -9.60 15 -13.40 13.80 -15.20 14.80 -17 11.40 z "/>
  <path d="M 639 400 c -24.60 -3.20 -45.60 -13 -52.60 -24.40 -2.60 -4.20 -4.60 -12 -5.40 -20.60 -0.60 -7.60 -3.40 -21.60 -6 -31 -5 -17.20 -6.40 -29 -3.40 -30.80 2.80 -1.80 9 13 6.60 15.40 -4 4 -2.40 7.40 3.40 7.40 5 0 5.80 1 8 9 3.40 13.20 8.80 17.80 19.20 16.40 11.40 -1.60 15.60 -7.20 15 -20.80 -0.40 -5.80 0 -11.20 0.80 -12 0.80 -0.60 1.40 -2.60 1.40 -4.20 0 -2.60 -2.60 -2.80 -15.40 -1.80 -8.60 0.80 -17.80 2 -20.20 2.60 -4.80 1.40 -4.80 1.20 -3.40 -10.40 0.80 -6.40 2 -12.40 2.80 -13 0.60 -0.80 6.20 -1.80 12.20 -2.60 l 11 -1.20 4.60 8.80 c 5.20 9.60 17.60 22.60 19.60 20.60 0.80 -0.60 0.40 -4.80 -0.80 -9.40 -1 -4.40 -1.80 -8 -1.60 -8 0.20 0 5 4.40 10.60 9.80 9 8.60 27.20 18.40 29.80 15.80 0.40 -0.60 0 -3.40 -1.20 -6.40 -1 -3 -2 -13.40 -2 -23.20 l 0 -17.60 14.60 -0.80 14.40 -0.60 13 9.80 c 7 5.20 15.80 11 19.40 12.80 3.60 1.80 6.80 4.60 6.80 6.20 1.40 14.20 -3 33.60 -11.40 51 -3.80 7.80 -6.80 14.20 -6.80 14.60 0 2 6.60 -0.20 12.80 -4.40 4 -2.80 7.80 -5 8 -5 1.40 0 -1.20 16.80 -3.20 20.40 -2.20 4.40 -39.20 22.40 -51.60 25.20 -13.60 3.20 -35.60 4.20 -49 2.40 z  m 48.40 -23.40 c 3.40 -4.20 0.20 -11.20 -6.20 -13.60 -3.60 -1.20 -8.20 -1 -14.20 0.60 -5 1.40 -12.20 2.40 -15.80 2.40 -10.20 0 -16.60 7.80 -11 13.40 3.40 3.40 44.20 1 47.20 -2.80 z  m 30.20 -15.60 l 0.40 -6 -2.80 6 -2.60 6 -1.20 -5 c -0.80 -2.80 -1.60 -6.80 -2 -9 -0.60 -2.20 -1 -0.40 -1.20 4.20 -0.20 9 1 11.20 5.80 10.40 1.80 -0.40 3.20 -3 3.60 -6.60 z  m 0.40 -31 c 4.40 -2.40 8.80 -16.40 7.20 -23.20 -1 -3.80 -0.20 -4.60 4.80 -5.80 7 -1.60 8 -6.20 1.80 -8 -6.40 -2 -49.20 1.20 -53 4 -4 2.80 -2.20 7 3 7 2.80 0 4 2.20 5 9.60 1.80 13.20 6.80 18.40 18.40 18.40 5 0 10.80 -1 12.80 -2 z  m -103 -34 c 3.20 -1.40 2.80 -1.80 -3 -1.80 -3.80 0 -8.40 0.80 -10 1.80 -2.20 1.40 -1.60 2 3 1.80 3.40 0 7.80 -0.80 10 -1.80 z  m 86.80 -9.20 c 2 -1.80 -17.20 -0.60 -19.80 1.20 -2 1.40 0.40 1.60 8 0.80 6 -0.80 11.40 -1.60 11.80 -2 z "/>
  <path d="M 644.80 374.60 c 0.60 -1.60 1.20 -3.40 1.20 -3.80 0 -0.40 3 -0.80 6.80 -0.80 3.60 0 10.20 -1.20 14.40 -2.80 8 -2.80 15 -1.60 17.80 2.80 2.60 4.20 -1.60 5.40 -21.60 6.60 -17 1 -19.60 0.60 -18.60 -2 z "/>
  <path d="M 695.40 324.40 c -2.20 -2.40 -3.40 -7.20 -3.40 -13 l 0 -9.40 14 0 14 0 0 9.60 c 0 7 -1 10.80 -3.60 13 -5 4.60 -17 4.40 -21 -0.20 z "/>
  <path d="M 787.20 317.80 c 0.20 -12 0.80 -22.60 1.60 -23.20 0.60 -0.60 3.40 0.40 6 2.20 6.40 4 9.60 15 7 24.20 -2 6.60 -10.60 19 -13.60 19 -0.80 0 -1.40 -10 -1 -22.20 z "/>
  <path d="M 596.40 330.60 c -1.20 -3 -2.80 -8 -3.40 -11 -1.40 -5.60 -1.80 -5.40 17.40 -8.80 7.20 -1.20 7.40 -1 8.80 6.40 0.80 4 0.60 9.80 -0.40 12.60 -1.60 4.40 -3.20 5.20 -11 5.80 -8.40 0.60 -9.40 0.20 -11.40 -5 z "/>
  <path d="M 592 272.60 c 0 -2 2.40 -9.80 5.40 -17.60 l 5.40 -14 3.80 15.80 c 4 17.60 3.40 19.20 -8 19.20 -5 0 -6.60 -0.80 -6.60 -3.40 z "/>
  <path d="M 674.20 258.60 c 0 -3.20 0.80 -9.40 1.40 -14 l 1.40 -8.40 10.60 13.80 10.40 14 -12 0 c -11.80 0 -12 0 -11.80 -5.40 z "/>
  <path d="M 897.20 257 c -4 -4.20 -0.60 -12.80 5.20 -13 1.80 0 7.60 6 7.60 8 0 2.20 -5.80 8 -8 8 -1 0 -3 -1.40 -4.80 -3 z "/>
  <path d="M 898.20 225.20 c -1.80 -2 -2.20 -5.80 -1.20 -11.20 1 -6.20 4 -10.40 13.20 -19.60 14.60 -14.20 17 -22.40 9.20 -31.60 -4.20 -4.80 -6.40 -5.80 -13.60 -5.60 -8.60 0.40 -12.60 3.20 -19 14 -3.40 5.60 -10 1.20 -9.40 -6.20 0.80 -11.20 14.80 -21 29.60 -21 18.60 0 31 11.20 31 27.80 0 11.60 -4 18.20 -16.80 27.80 -9 6.80 -11.40 10 -13.60 17.80 -2.80 10.20 -5.60 12.40 -9.40 7.80 z "/>
 </g>
</svg>